<svg xmlns="http://www.w3.org/2000/svg" viewBox="0 0 128 128" fill="none">
  <rect width="128" height="128" rx="28" fill="#0f1c2e"/>
  <g fill="#e8eef5" transform="translate(20 20) scale(3.666667)">
    <path d="M12 8.145c1.715 0 3.107-1.375 3.107-3.072S13.717 2 12 2 8.893 3.375 8.893 5.072 10.283 8.145 12 8.145M12 22c1.715 0 3.107-1.375 3.107-3.072s-1.39-3.073-3.107-3.073-3.107 1.376-3.107 3.073S10.283 22 12 22M6.004 11.646c1.716 0 3.107-1.375 3.107-3.072S7.721 5.5 6.004 5.5 2.897 6.877 2.897 8.575s1.39 3.072 3.107 3.072M17.996 18.492c1.715 0 3.107-1.375 3.107-3.072s-1.39-3.073-3.107-3.073-3.107 1.376-3.107 3.073 1.39 3.072 3.107 3.072M17.996 11.646c1.715 0 3.107-1.374 3.107-3.072s-1.39-3.072-3.107-3.072-3.107 1.374-3.107 3.072 1.39 3.072 3.107 3.072M6.004 18.492c1.716 0 3.107-1.375 3.107-3.073s-1.39-3.072-3.107-3.072-3.107 1.378-3.107 3.074 1.39 3.072 3.107 3.072z"/>
  </g>
</svg>
